<svg width="130" height="21" viewBox="0 0 130 21" fill="none" xmlns="http://www.w3.org/2000/svg">
<path d="M0.709961 20V0.326663H8.58698C10.0343 0.326663 11.2415 0.5412 12.2085 0.970274C13.1755 1.39935 13.9024 1.99493 14.3891 2.75701C14.8758 3.5127 15.1191 4.38365 15.1191 5.36988C15.1191 6.13837 14.9655 6.814 14.6581 7.39677C14.3507 7.97314 13.928 8.44704 13.39 8.81848C12.8585 9.18351 12.2501 9.44288 11.5649 9.59657V9.7887C12.3142 9.82072 13.0154 10.0321 13.6686 10.4227C14.3282 10.8134 14.863 11.3609 15.2728 12.0653C15.6827 12.7634 15.8876 13.5959 15.8876 14.5629C15.8876 15.6068 15.6283 16.5386 15.1095 17.3583C14.5972 18.1716 13.8383 18.8153 12.8329 19.2892C11.8275 19.7631 10.5883 20 9.11532 20H0.709961ZM4.86941 16.5994H8.26038C9.41952 16.5994 10.2649 16.3785 10.7964 15.9366C11.3279 15.4883 11.5937 14.8928 11.5937 14.1499C11.5937 13.6055 11.4624 13.1252 11.1999 12.709C10.9373 12.2927 10.5626 11.9661 10.0759 11.7291C9.59563 11.4922 9.02246 11.3737 8.35644 11.3737H4.86941V16.5994ZM4.86941 8.55911H7.95298C8.52294 8.55911 9.02887 8.45985 9.47075 8.26132C9.91903 8.05639 10.2713 7.76821 10.5274 7.39677C10.79 7.02534 10.9213 6.58025 10.9213 6.06152C10.9213 5.35067 10.6683 4.7775 10.1624 4.34202C9.66287 3.90655 8.95202 3.68881 8.02983 3.68881H4.86941V8.55911Z" fill="#413E3A"/>
<path d="M25.184 20.2882C23.6918 20.2882 22.4014 19.9712 21.3127 19.3372C20.2304 18.6968 19.3947 17.8066 18.8055 16.6667C18.2163 15.5204 17.9217 14.1915 17.9217 12.6801C17.9217 11.156 18.2163 9.82392 18.8055 8.68399C19.3947 7.53766 20.2304 6.64749 21.3127 6.01349C22.4014 5.37308 23.6918 5.05288 25.184 5.05288C26.6761 5.05288 27.9633 5.37308 29.0456 6.01349C30.1343 6.64749 30.9733 7.53766 31.5624 8.68399C32.1516 9.82392 32.4462 11.156 32.4462 12.6801C32.4462 14.1915 32.1516 15.5204 31.5624 16.6667C30.9733 17.8066 30.1343 18.6968 29.0456 19.3372C27.9633 19.9712 26.6761 20.2882 25.184 20.2882ZM25.2032 17.1182C25.882 17.1182 26.4488 16.926 26.9035 16.5418C27.3582 16.1512 27.7008 15.6196 27.9313 14.9472C28.1683 14.2748 28.2867 13.5095 28.2867 12.6513C28.2867 11.7932 28.1683 11.0279 27.9313 10.3555C27.7008 9.68303 27.3582 9.15149 26.9035 8.76084C26.4488 8.37019 25.882 8.17487 25.2032 8.17487C24.5179 8.17487 23.9416 8.37019 23.4741 8.76084C23.013 9.15149 22.664 9.68303 22.427 10.3555C22.1965 11.0279 22.0812 11.7932 22.0812 12.6513C22.0812 13.5095 22.1965 14.2748 22.427 14.9472C22.664 15.6196 23.013 16.1512 23.4741 16.5418C23.9416 16.926 24.5179 17.1182 25.2032 17.1182Z" fill="#413E3A"/>
<path d="M41.7737 20.2882C40.2816 20.2882 38.9912 19.9712 37.9025 19.3372C36.8202 18.6968 35.9845 17.8066 35.3953 16.6667C34.8061 15.5204 34.5115 14.1915 34.5115 12.6801C34.5115 11.156 34.8061 9.82392 35.3953 8.68399C35.9845 7.53766 36.8202 6.64749 37.9025 6.01349C38.9912 5.37308 40.2816 5.05288 41.7737 5.05288C43.2659 5.05288 44.5531 5.37308 45.6354 6.01349C46.7241 6.64749 47.563 7.53766 48.1522 8.68399C48.7414 9.82392 49.036 11.156 49.036 12.6801C49.036 14.1915 48.7414 15.5204 48.1522 16.6667C47.563 17.8066 46.7241 18.6968 45.6354 19.3372C44.5531 19.9712 43.2659 20.2882 41.7737 20.2882ZM41.793 17.1182C42.4718 17.1182 43.0386 16.926 43.4932 16.5418C43.9479 16.1512 44.2906 15.6196 44.5211 14.9472C44.7581 14.2748 44.8765 13.5095 44.8765 12.6513C44.8765 11.7932 44.7581 11.0279 44.5211 10.3555C44.2906 9.68303 43.9479 9.15149 43.4932 8.76084C43.0386 8.37019 42.4718 8.17487 41.793 8.17487C41.1077 8.17487 40.5314 8.37019 40.0639 8.76084C39.6028 9.15149 39.2537 9.68303 39.0168 10.3555C38.7862 11.0279 38.671 11.7932 38.671 12.6513C38.671 13.5095 38.7862 14.2748 39.0168 14.9472C39.2537 15.6196 39.6028 16.1512 40.0639 16.5418C40.5314 16.926 41.1077 17.1182 41.793 17.1182Z" fill="#413E3A"/>
<path d="M55.4048 15.7541L55.4144 10.8454H56.01L60.7362 5.245H65.4336L59.084 12.6609H58.1138L55.4048 15.7541ZM51.6969 20V0.326663H55.7891V20H51.6969ZM60.9188 20L56.5768 13.5735L59.3049 10.6821L65.7122 20H60.9188Z" fill="#413E3A"/>
<path d="M71.5335 0.326663V20H67.4413V0.326663H71.5335Z" fill="#413E3A"/>
<path d="M81.4783 20.2882C79.9861 20.2882 78.6957 19.9712 77.607 19.3372C76.5247 18.6968 75.689 17.8066 75.0998 16.6667C74.5106 15.5204 74.216 14.1915 74.216 12.6801C74.216 11.156 74.5106 9.82392 75.0998 8.68399C75.689 7.53766 76.5247 6.64749 77.607 6.01349C78.6957 5.37308 79.9861 5.05288 81.4783 5.05288C82.9704 5.05288 84.2576 5.37308 85.3399 6.01349C86.4286 6.64749 87.2676 7.53766 87.8567 8.68399C88.4459 9.82392 88.7405 11.156 88.7405 12.6801C88.7405 14.1915 88.4459 15.5204 87.8567 16.6667C87.2676 17.8066 86.4286 18.6968 85.3399 19.3372C84.2576 19.9712 82.9704 20.2882 81.4783 20.2882ZM81.4975 17.1182C82.1763 17.1182 82.7431 16.926 83.1978 16.5418C83.6525 16.1512 83.9951 15.6196 84.2256 14.9472C84.4626 14.2748 84.581 13.5095 84.581 12.6513C84.581 11.7932 84.4626 11.0279 84.2256 10.3555C83.9951 9.68303 83.6525 9.15149 83.1978 8.76084C82.7431 8.37019 82.1763 8.17487 81.4975 8.17487C80.8122 8.17487 80.2359 8.37019 79.7684 8.76084C79.3073 9.15149 78.9583 9.68303 78.7213 10.3555C78.4908 11.0279 78.3755 11.7932 78.3755 12.6513C78.3755 13.5095 78.4908 14.2748 78.7213 14.9472C78.9583 15.6196 79.3073 16.1512 79.7684 16.5418C80.2359 16.926 80.8122 17.1182 81.4975 17.1182Z" fill="#413E3A"/>
<path d="M98.068 20.2882C96.5759 20.2882 95.2855 19.9712 94.1968 19.3372C93.1145 18.6968 92.2788 17.8066 91.6896 16.6667C91.1004 15.5204 90.8058 14.1915 90.8058 12.6801C90.8058 11.156 91.1004 9.82392 91.6896 8.68399C92.2788 7.53766 93.1145 6.64749 94.1968 6.01349C95.2855 5.37308 96.5759 5.05288 98.068 5.05288C99.5602 5.05288 100.847 5.37308 101.93 6.01349C103.018 6.64749 103.857 7.53766 104.447 8.68399C105.036 9.82392 105.33 11.156 105.33 12.6801C105.33 14.1915 105.036 15.5204 104.447 16.6667C103.857 17.8066 103.018 18.6968 101.93 19.3372C100.847 19.9712 99.5602 20.2882 98.068 20.2882ZM98.0873 17.1182C98.7661 17.1182 99.3328 16.926 99.7875 16.5418C100.242 16.1512 100.585 15.6196 100.815 14.9472C101.052 14.2748 101.171 13.5095 101.171 12.6513C101.171 11.7932 101.052 11.0279 100.815 10.3555C100.585 9.68303 100.242 9.15149 99.7875 8.76084C99.3328 8.37019 98.7661 8.17487 98.0873 8.17487C97.402 8.17487 96.8257 8.37019 96.3582 8.76084C95.8971 9.15149 95.548 9.68303 95.3111 10.3555C95.0805 11.0279 94.9653 11.7932 94.9653 12.6513C94.9653 13.5095 95.0805 14.2748 95.3111 14.9472C95.548 15.6196 95.8971 16.1512 96.3582 16.5418C96.8257 16.926 97.402 17.1182 98.0873 17.1182Z" fill="#413E3A"/>
<path d="M107.991 20V5.245H111.891V7.84826H112.064C112.372 6.98371 112.884 6.30167 113.601 5.80215C114.318 5.30264 115.177 5.05288 116.176 5.05288C117.187 5.05288 118.049 5.30584 118.76 5.81176C119.47 6.31128 119.944 6.99011 120.181 7.84826H120.335C120.636 7.00292 121.18 6.32729 121.968 5.82137C122.762 5.30904 123.7 5.05288 124.783 5.05288C126.16 5.05288 127.277 5.49156 128.135 6.36892C129 7.23987 129.432 8.47586 129.432 10.0769V20H125.349V10.8838C125.349 10.0641 125.132 9.44928 124.696 9.03942C124.261 8.62956 123.716 8.42463 123.063 8.42463C122.32 8.42463 121.741 8.66158 121.324 9.13548C120.908 9.60298 120.7 10.221 120.7 10.9895V20H116.733V10.7973C116.733 10.0737 116.525 9.49731 116.108 9.06824C115.698 8.63916 115.157 8.42463 114.485 8.42463C114.03 8.42463 113.62 8.5399 113.255 8.77045C112.897 8.99459 112.612 9.31159 112.4 9.72145C112.189 10.1249 112.083 10.5988 112.083 11.1432V20H107.991Z" fill="#413E3A"/>
<path d="M89.4764 4.9823C83.0838 0.206923 76.497 3.00249 74.0001 5.00002L76.0303 2.96975C79.0121 -0.0120194 83.5439 -0.802898 87.3594 0.992626L89.5001 2.00001L90.3149 1.53442C94.0167 -0.580918 98.6526 -0.116515 101.861 2.69109L104.5 5.00002C96.7552 -0.808662 89.4789 4.62958 89.4764 4.9823C89.4843 4.9882 89.4922 4.9941 89.5001 5.00002C89.4841 5.00002 89.4763 4.99392 89.4764 4.9823Z" fill="#7635DC"/>
</svg>
